<?xml version="1.0" encoding="utf-8"?>
<!-- Generator: Adobe Illustrator 15.0.0, SVG Export Plug-In . SVG Version: 6.00 Build 0)  -->
<!DOCTYPE svg PUBLIC "-//W3C//DTD SVG 1.1//EN" "http://www.w3.org/Graphics/SVG/1.1/DTD/svg11.dtd">
<svg version="1.1" id="Layer_1" xmlns="http://www.w3.org/2000/svg" xmlns:xlink="http://www.w3.org/1999/xlink" x="0px" y="0px"
	 width="856.1px" height="268.8px" viewBox="0 0 856.1 268.8" style="enable-background:new 0 0 856.1 268.8;" xml:space="preserve"
	>
<style type="text/css">
<![CDATA[
	.st0{fill:none;stroke:#FF0000;stroke-width:2.267700e-002;stroke-miterlimit:10;}
]]>
</style>
<g>
	<path class="st0" d="M614.2,261.2V6.4 M329.3,261.2V6.4 M614.2,2.1 M578.2,257v-76.5 M578.2,172V95.6 M578.2,87.1V10.6 M573.9,6.4
		v38.2 M573.9,53.1v76.5 M573.9,138.1v76.5 M573.9,223v38.2 M569.6,257v-76.5 M569.6,172V95.6 M569.6,87.1V10.6 M565.4,6.4v38.2
		 M565.4,53.1v76.5 M565.4,138.1v76.5 M565.4,223v38.2 M561.1,257v-76.5 M561.1,172V95.6 M561.1,87.1V10.6 M556.9,6.4v38.2
		 M556.9,53.1v76.5 M556.9,138.1v76.5 M556.9,223v38.2 M552.6,257v-76.5 M552.6,172V95.6 M552.6,87.1V10.6 M548.4,6.4v38.2
		 M548.4,53.1v76.5 M548.4,138.1v76.5 M548.4,223v38.2 M544.1,257v-76.5 M544.1,172V95.6 M544.1,87.1V10.6 M539.8,6.4v38.2
		 M539.8,53.1v76.5 M539.8,138.1v76.5 M539.8,223v38.2 M535.6,257v-76.5 M535.6,172V95.6 M535.6,87.1V10.6 M531.3,6.4v38.2
		 M531.3,53.1v76.5 M531.3,138.1v76.5 M531.3,223v38.2 M527.1,257v-76.5 M527.1,172V95.6 M527.1,87.1V10.6 M522.8,6.4v38.2
		 M522.8,53.1v76.5 M522.8,138.1v76.5 M522.8,223v38.2 M518.6,257v-76.5 M518.6,172V95.6 M518.6,87.1V10.6 M514.3,6.4v38.2
		 M514.3,53.1v76.5 M514.3,138.1v76.5 M514.3,223v38.2 M510,257v-76.5 M510,172V95.6 M510,87.1V10.6 M505.8,6.4v38.2 M505.8,53.1
		v76.5 M505.8,138.1v76.5 M505.8,223v38.2 M501.5,257v-76.5 M501.5,172V95.6 M501.5,87.1V10.6 M497.3,6.4v38.2 M497.3,53.1v76.5
		 M497.3,138.1v76.5 M497.3,223v38.2 M493,257v-76.5 M493,172V95.6 M493,87.1V10.6 M488.8,6.4v38.2 M488.8,53.1v76.5 M488.8,138.1
		v76.5 M488.8,223v38.2 M484.5,257v-76.5 M484.5,172V95.6 M484.5,87.1V10.6 M480.2,6.4v38.2 M480.2,53.1v76.5 M480.2,138.1v76.5
		 M480.2,223v38.2 M476,257v-76.5 M476,172V95.6 M476,87.1V10.6 M471.7,6.4v38.2 M471.7,53.1v76.5 M471.7,138.1v76.5 M471.7,223
		v38.2 M467.5,257v-76.5 M467.5,172V95.6 M467.5,87.1V10.6 M463.2,6.4v38.2 M463.2,53.1v76.5 M463.2,138.1v76.5 M463.2,223v38.2
		 M459,257v-76.5 M459,172V95.6 M459,87.1V10.6 M454.7,6.4v38.2 M454.7,53.1v76.5 M454.7,138.1v76.5 M454.7,223v38.2 M450.4,257
		v-76.5 M450.4,172V95.6 M450.4,87.1V10.6 M446.2,6.4v38.2 M446.2,53.1v76.5 M446.2,138.1v76.5 M446.2,223v38.2 M441.9,257v-76.5
		 M441.9,172V95.6 M441.9,87.1V10.6 M437.7,6.4v38.2 M437.7,53.1v76.5 M437.7,138.1v76.5 M437.7,223v38.2 M433.4,257v-76.5
		 M433.4,172V95.6 M433.4,87.1V10.6 M429.2,6.4v38.2 M429.2,53.1v76.5 M429.2,138.1v76.5 M429.2,223v38.2 M424.9,257v-76.5
		 M424.9,172V95.6 M424.9,87.1V10.6 M420.6,6.4v38.2 M420.6,53.1v76.5 M420.6,138.1v76.5 M420.6,223v38.2 M416.4,257v-76.5
		 M416.4,172V95.6 M416.4,87.1V10.6 M412.1,6.4v38.2 M412.1,53.1v76.5 M412.1,138.1v76.5 M412.1,223v38.2 M407.9,257v-76.5
		 M407.9,172V95.6 M407.9,87.1V10.6 M403.6,6.4v38.2 M403.6,53.1v76.5 M403.6,138.1v76.5 M403.6,223v38.2 M399.4,257v-76.5
		 M399.4,172V95.6 M399.4,87.1V10.6 M395.1,6.4v38.2 M395.1,53.1v76.5 M395.1,138.1v76.5 M395.1,223v38.2 M390.8,257v-76.5
		 M390.8,172V95.6 M390.8,87.1V10.6 M386.6,6.4v38.2 M386.6,53.1v76.5 M386.6,138.1v76.5 M386.6,223v38.2 M382.3,257v-76.5
		 M382.3,172V95.6 M382.3,87.1V10.6 M378.1,6.4v38.2 M378.1,53.1v76.5 M378.1,138.1v76.5 M378.1,223v38.2 M373.8,257v-76.5
		 M373.8,172V95.6 M373.8,87.1V10.6 M369.6,6.4v38.2 M369.6,53.1v76.5 M369.6,138.1v76.5 M369.6,223v38.2 M365.3,257v-76.5
		 M365.3,172V95.6 M365.3,87.1V10.6 M365.3,2.1 M578.2,6.4H365.3 M365.3,261.2h212.8 M614.2,6.4H607v8.5h-7.2V6.4h-7.2v8.5h-7.2V6.4
		h-7.2"/>
	<polyline class="st0" points="578.2,261.2 585.4,261.2 585.4,252.7 592.6,252.7 592.6,261.2 599.8,261.2 599.8,252.7 607,252.7 
		607,261.2 614.2,261.2 	"/>
	<path class="st0" d="M365.3,261.2h-12v-8.5h-12v8.5h-12"/>
	<path class="st0" d="M329.3,6.4h12v8.5h12V6.4h12"/>
</g>
<polygon class="st0" points="691.9,263.7 683.4,263.7 683.4,255.2 640.2,255.2 640.2,17.4 683.4,17.4 683.4,8.8 691.9,8.8 
	691.9,17.4 735.1,17.4 735.1,255.2 691.9,255.2 "/>
<polygon class="st0" points="800.6,263.7 792.1,263.7 792.1,255.2 748.9,255.2 748.9,17.4 792.1,17.4 792.1,8.8 800.6,8.8 
	800.6,17.4 843.8,17.4 843.8,255.2 800.6,255.2 "/>
<path class="st0" d="M409.2,7.4"/>
<g>
	<g>
		<g>
			<path d="M714.9,190.2v2h-13v-2h5.6v-2.3h-5.6v-2.1h13v2.1h-5.6v2.3H714.9z"/>
			<path d="M714.9,177.7v2.1l-2.4,0.4v2.5l2.4,0.4v1.9l-13-2.1v-3L714.9,177.7z M710.8,182.3v-2l-6.6,1L710.8,182.3z"/>
			<path d="M710,170.8h1.7c2.1,0,3.3,1,3.3,3s-1.2,3-3.3,3H705c-2.1,0-3.3-1-3.3-3s1.2-3,3.3-3h1.3v1.9h-1.4c-0.9,0-1.3,0.4-1.3,1.1
				c0,0.7,0.4,1.1,1.3,1.1h7c0.9,0,1.3-0.4,1.3-1.1c0-0.7-0.3-1.1-1.3-1.1H710V170.8z"/>
			<path d="M709.7,166.9l1.2,0.6h4v2h-13v-2h5.7l-5.7-2.7v-2l5.8,2.8l7.2-2.8v2.1L709.7,166.9z"/>
			<path d="M701.9,159v-2h13v2H701.9z"/>
			<path d="M705.5,153.6h9.4v1.8h-13v-2.6l7.8-2.1h-7.8V149h13v2.1L705.5,153.6z"/>
			<path d="M701.9,145.2v-6.3h1.9v2.1h11.2v2h-11.2v2.1H701.9z"/>
			<path d="M714.9,136v2h-13v-2h5.6v-2.3h-5.6v-2.1h13v2.1h-5.6v2.3H714.9z"/>
			<path d="M707.4,128.1v-2.8h1.9v2.8h3.8v-3.5h1.9v5.6h-13v-5.6h1.9v3.5H707.4z"/>
			<path d="M704.9,114.3h0.5c1.3,0,2.2,0.4,2.6,1.3c0.4-1.1,1.4-1.5,2.8-1.5h1.1c2,0,3.1,1.1,3.1,3.1v3.2h-13v-3.1
				C701.9,115.2,702.9,114.3,704.9,114.3z M709,118.3h4v-1.2c0-0.7-0.3-1.1-1.3-1.1h-1.1c-1.2,0-1.6,0.4-1.6,1.3V118.3z
				 M703.7,118.3h3.4v-0.8c0-0.8-0.3-1.2-1.4-1.2h-0.7c-0.9,0-1.3,0.3-1.3,1V118.3z"/>
			<path d="M705,113c-2.1,0-3.3-1.1-3.3-3.1c0-2,1.2-3.1,3.3-3.1h6.8c2.1,0,3.3,1.1,3.3,3.1c0,2-1.2,3.1-3.3,3.1H705z M711.9,111
				c0.9,0,1.3-0.4,1.3-1.1s-0.4-1.1-1.3-1.1h-7c-0.9,0-1.3,0.4-1.3,1.1s0.4,1.1,1.3,1.1H711.9z"/>
			<path d="M701.9,106.1v-6.3h1.9v2.1h11.2v2h-11.2v2.1H701.9z"/>
			<path d="M701.9,99.5v-6.3h1.9v2.1h11.2v2h-11.2v2.1H701.9z"/>
			<path d="M701.9,92.3v-2H713v-3.4h1.9v5.4H701.9z"/>
			<path d="M707.4,83.9v-2.8h1.9v2.8h3.8v-3.5h1.9V86h-13v-5.6h1.9v3.5H707.4z"/>
		</g>
	</g>
	<g>
		<g>
			<g>
				<path d="M683.8,145.9c-0.3,0-0.5-0.3-0.5-0.6c0-0.2,0.1-0.4,0.3-0.5c-0.2-0.1-0.3-0.3-0.3-0.5c0-0.3,0.3-0.6,0.6-0.6h3
					c0.3,0,0.6,0.2,0.6,0.6c0,0.2-0.1,0.4-0.3,0.5c0.2,0.1,0.3,0.3,0.3,0.5c0,0.3-0.2,0.5-0.5,0.6l3.6,9.2c0.2,0.6,0.3,1.3,0.3,1.9
					v16.4c0,0.6-0.5,1.1-1.2,1.1H681c-0.7,0-1.2-0.5-1.2-1.1V157c0-0.7,0.1-1.3,0.3-1.9L683.8,145.9z"/>
			</g>
			<g>
				<path d="M676,143.6c-0.2-0.2-0.2-0.6,0-0.8c0.1-0.1,0.4-0.2,0.6-0.1c-0.1-0.2,0-0.4,0.1-0.6c0.2-0.2,0.6-0.2,0.8,0l2.1,2.1
					c0.2,0.2,0.2,0.6,0,0.8c-0.2,0.2-0.4,0.2-0.6,0.1c0.1,0.2,0,0.4-0.1,0.6c-0.2,0.2-0.5,0.2-0.8,0l-4,9.1
					c-0.3,0.6-0.7,1.1-1.1,1.6L661.5,168c-0.4,0.4-1.2,0.4-1.6,0l-6.1-6.1c-0.5-0.5-0.5-1.2,0-1.6l11.6-11.6c0.5-0.5,1-0.9,1.6-1.1
					L676,143.6z"/>
			</g>
			<g>
				<path d="M673.3,135.6c0-0.3,0.3-0.5,0.6-0.5c0.2,0,0.4,0.1,0.5,0.3c0.1-0.2,0.3-0.3,0.5-0.3c0.3,0,0.6,0.3,0.6,0.6v3
					c0,0.3-0.2,0.6-0.6,0.6c-0.2,0-0.4-0.1-0.5-0.3c-0.1,0.2-0.3,0.3-0.5,0.3c-0.3,0-0.5-0.2-0.6-0.5l-9.2,3.6
					c-0.6,0.2-1.3,0.3-1.9,0.3h-16.4c-0.6,0-1.1-0.5-1.1-1.2v-8.6c0-0.7,0.5-1.2,1.1-1.2l16.4,0c0.7,0,1.3,0.1,1.9,0.3L673.3,135.6z
					"/>
			</g>
			<g>
				<path d="M679.3,117.7c-0.2-0.6-0.3-1.3-0.3-1.9V99.4c0-0.6,0.5-1.1,1.2-1.1h8.6c0.7,0,1.2,0.5,1.2,1.1v16.4
					c0,0.7-0.1,1.3-0.3,1.9l-3.6,9.2c0.3,0,0.5,0.3,0.5,0.6c0,0.2-0.1,0.4-0.3,0.5c0.2,0.1,0.3,0.3,0.3,0.5c0,0.3-0.3,0.6-0.6,0.6
					h-3c-0.3,0-0.6-0.2-0.6-0.6c0-0.2,0.1-0.4,0.3-0.5c-0.2-0.1-0.3-0.3-0.3-0.5c0-0.3,0.2-0.5,0.5-0.6L679.3,117.7z"/>
			</g>
			<g>
				<path d="M666.1,125.3c-0.6-0.3-1.1-0.7-1.6-1.1l-11.6-11.6c-0.4-0.4-0.4-1.2,0-1.6l6.1-6.1c0.5-0.5,1.2-0.5,1.6,0l11.6,11.6
					c0.5,0.5,0.9,1,1.1,1.6l4,9.1c0.2-0.2,0.5-0.2,0.7,0c0.2,0.2,0.2,0.4,0.1,0.6c0.2-0.1,0.4,0,0.6,0.1c0.2,0.2,0.2,0.6,0,0.8
					l-2.1,2.1c-0.2,0.2-0.6,0.2-0.8,0c-0.1-0.1-0.2-0.4-0.1-0.6c-0.2,0.1-0.4,0-0.6-0.1c-0.2-0.2-0.2-0.5,0-0.8L666.1,125.3z"/>
			</g>
		</g>
	</g>
</g>
<g>
	<g>
		<defs>
			<rect id="SVGID_1_" x="644.7" y="24.5" width="26.3" height="33.4"/>
		</defs>
		<clipPath id="SVGID_2_">
			<use xlink:href="#SVGID_1_"  style="overflow:visible;"/>
		</clipPath>
		<g transform="matrix(1 0 0 1 -3.860329e-005 -1.415385e-006)" style="clip-path:url(#SVGID_2_);">
			
				<image style="overflow:visible;" width="1654" height="1299" xlink:href="19658A4B.jpg"  transform="matrix(0 -2.020900e-002 2.020900e-002 0 644.6543 57.9004)">
			</image>
		</g>
	</g>
</g>
<g>
	<g>
		<g>
			<path d="M678,246.5l-3.1-0.5v-0.9h4.3v0.6h-3.1l3.1,0.5v0.6l-3,0.5h3v0.6h-4.3V247L678,246.5z"/>
			<path d="M679.2,242.4v0.7l-0.8,0.1v0.8l0.8,0.1v0.6l-4.3-0.7v-1L679.2,242.4z M677.9,244v-0.7l-2.2,0.3L677.9,244z"/>
			<path d="M677.5,241.2l0.4,0.2h1.3v0.7h-4.3v-0.7h1.9l-1.9-0.9v-0.7l1.9,0.9l2.4-0.9v0.7L677.5,241.2z"/>
			<path d="M676.8,238.9V238h0.6v0.9h1.3v-1.2h0.6v1.8h-4.3v-1.8h0.6v1.2H676.8z"/>
			<path d="M674.9,236.4c0-0.7,0.4-1,1.1-1h0.1v0.6h-0.2c-0.3,0-0.4,0.1-0.4,0.3s0.1,0.3,0.4,0.3c0.9,0,1.1-1.3,2.3-1.3
				c0.7,0,1.1,0.3,1.1,1c0,0.7-0.4,1-1.1,1h-0.3v-0.6h0.3c0.3,0,0.4-0.1,0.4-0.4s-0.1-0.4-0.4-0.4c-0.9,0-1.1,1.3-2.3,1.3
				C675.3,237.4,674.9,237.1,674.9,236.4z"/>
			<path d="M674.9,235.2v-2.1h0.6v0.7h3.7v0.7h-3.7v0.7H674.9z"/>
			<path d="M676,232.9c-0.7,0-1.1-0.4-1.1-1c0-0.7,0.4-1,1.1-1h2.2c0.7,0,1.1,0.4,1.1,1c0,0.7-0.4,1-1.1,1H676z M678.3,232.2
				c0.3,0,0.4-0.1,0.4-0.4c0-0.2-0.1-0.3-0.4-0.3h-2.3c-0.3,0-0.4,0.1-0.4,0.3c0,0.2,0.1,0.4,0.4,0.4H678.3z"/>
			<path d="M679.2,229c-0.1,0-0.2,0.1-0.5,0.1H678c-0.4,0-0.5,0.1-0.5,0.4v0.2h1.8v0.7h-4.3v-1c0-0.7,0.3-1,1-1h0.3
				c0.4,0,0.7,0.1,0.9,0.4c0.1-0.3,0.5-0.4,0.9-0.4h0.7c0.2,0,0.4,0,0.5-0.1V229z M675.6,229.7h1.3v-0.3c0-0.3-0.1-0.4-0.5-0.4H676
				c-0.3,0-0.4,0.1-0.4,0.3V229.7z"/>
			<path d="M678,226.5l-3.1-0.5v-0.9h4.3v0.6h-3.1l3.1,0.5v0.6l-3,0.5h3v0.6h-4.3V227L678,226.5z"/>
			<path d="M674.9,224.6v-0.7h4.3v0.7H674.9z"/>
			<path d="M676.1,222.8h3.1v0.6h-4.3v-0.8l2.6-0.7h-2.6v-0.6h4.3v0.7L676.1,222.8z"/>
			<path d="M676.8,219.8v-0.9h1.4c0.7,0,1.1,0.3,1.1,1s-0.4,1-1.1,1H676c-0.7,0-1.1-0.3-1.1-1s0.4-1,1.1-1h0.4v0.6h-0.5
				c-0.3,0-0.4,0.1-0.4,0.4c0,0.2,0.1,0.4,0.4,0.4h2.3c0.3,0,0.4-0.1,0.4-0.4c0-0.2-0.1-0.4-0.4-0.4h-0.8v0.3H676.8z"/>
		</g>
		<g>
			<g>
				<path d="M680.2,247.8C680.2,247.9,680.2,247.9,680.2,247.8c-0.1,0.1-0.1,0.1-0.1,0.1c0,0-0.1,0-0.1,0c0,0,0-0.1,0-0.2
					c0,0,0.1,0,0.1,0S680.1,247.7,680.2,247.8C680.2,247.8,680.2,247.8,680.2,247.8z"/>
			</g>
			<g>
				<path d="M680.1,219.6c-0.1,0-0.1-0.1-0.1-0.1l0,0c0-0.1,0.1-0.1,0.1-0.1l0,0c0.1,0,0.1,0.1,0.1,0.1l0,0
					C680.2,219.5,680.1,219.6,680.1,219.6z M680.1,220.1c-0.1,0-0.1-0.1-0.1-0.1l0,0c0-0.1,0.1-0.1,0.1-0.1l0,0
					c0.1,0,0.1,0.1,0.1,0.1l0,0C680.2,220,680.1,220.1,680.1,220.1z M680.1,220.6c-0.1,0-0.1-0.1-0.1-0.1l0,0c0-0.1,0.1-0.1,0.1-0.1
					l0,0c0.1,0,0.1,0.1,0.1,0.1l0,0C680.2,220.5,680.1,220.6,680.1,220.6z M680.1,221.1c-0.1,0-0.1-0.1-0.1-0.1l0,0
					c0-0.1,0.1-0.1,0.1-0.1l0,0c0.1,0,0.1,0.1,0.1,0.1l0,0C680.2,221,680.1,221.1,680.1,221.1z M680.1,221.6c-0.1,0-0.1-0.1-0.1-0.1
					l0,0c0-0.1,0.1-0.1,0.1-0.1l0,0c0.1,0,0.1,0.1,0.1,0.1l0,0C680.2,221.5,680.1,221.6,680.1,221.6z M680.1,222.1
					c-0.1,0-0.1-0.1-0.1-0.1l0,0c0-0.1,0.1-0.1,0.1-0.1l0,0c0.1,0,0.1,0.1,0.1,0.1l0,0C680.2,222.1,680.1,222.1,680.1,222.1z
					 M680.1,222.6c-0.1,0-0.1-0.1-0.1-0.1l0,0c0-0.1,0.1-0.1,0.1-0.1l0,0c0.1,0,0.1,0.1,0.1,0.1l0,0
					C680.2,222.6,680.1,222.6,680.1,222.6z M680.1,223.1c-0.1,0-0.1-0.1-0.1-0.1l0,0c0-0.1,0.1-0.1,0.1-0.1l0,0
					c0.1,0,0.1,0.1,0.1,0.1l0,0C680.2,223.1,680.1,223.1,680.1,223.1z M680.1,223.6c-0.1,0-0.1-0.1-0.1-0.1l0,0
					c0-0.1,0.1-0.1,0.1-0.1l0,0c0.1,0,0.1,0.1,0.1,0.1l0,0C680.2,223.6,680.1,223.6,680.1,223.6z M680.1,224.1
					c-0.1,0-0.1-0.1-0.1-0.1l0,0c0-0.1,0.1-0.1,0.1-0.1l0,0c0.1,0,0.1,0.1,0.1,0.1l0,0C680.2,224.1,680.1,224.1,680.1,224.1z
					 M680.1,224.6c-0.1,0-0.1-0.1-0.1-0.1l0,0c0-0.1,0.1-0.1,0.1-0.1l0,0c0.1,0,0.1,0.1,0.1,0.1l0,0
					C680.2,224.6,680.1,224.6,680.1,224.6z M680.1,225.2c-0.1,0-0.1-0.1-0.1-0.1l0,0c0-0.1,0.1-0.1,0.1-0.1l0,0
					c0.1,0,0.1,0.1,0.1,0.1l0,0C680.2,225.1,680.1,225.2,680.1,225.2z M680.1,225.7c-0.1,0-0.1-0.1-0.1-0.1l0,0
					c0-0.1,0.1-0.1,0.1-0.1l0,0c0.1,0,0.1,0.1,0.1,0.1l0,0C680.2,225.6,680.1,225.7,680.1,225.7z M680.1,226.2
					c-0.1,0-0.1-0.1-0.1-0.1l0,0c0-0.1,0.1-0.1,0.1-0.1l0,0c0.1,0,0.1,0.1,0.1,0.1l0,0C680.2,226.1,680.1,226.2,680.1,226.2z
					 M680.1,226.7c-0.1,0-0.1-0.1-0.1-0.1l0,0c0-0.1,0.1-0.1,0.1-0.1l0,0c0.1,0,0.1,0.1,0.1,0.1l0,0
					C680.2,226.6,680.1,226.7,680.1,226.7z M680.1,227.2c-0.1,0-0.1-0.1-0.1-0.1l0,0c0-0.1,0.1-0.1,0.1-0.1l0,0
					c0.1,0,0.1,0.1,0.1,0.1l0,0C680.2,227.1,680.1,227.2,680.1,227.2z M680.1,227.7c-0.1,0-0.1-0.1-0.1-0.1l0,0
					c0-0.1,0.1-0.1,0.1-0.1l0,0c0.1,0,0.1,0.1,0.1,0.1l0,0C680.2,227.6,680.1,227.7,680.1,227.7z M680.1,228.2
					c-0.1,0-0.1-0.1-0.1-0.1l0,0c0-0.1,0.1-0.1,0.1-0.1l0,0c0.1,0,0.1,0.1,0.1,0.1l0,0C680.2,228.1,680.1,228.2,680.1,228.2z
					 M680.1,228.7c-0.1,0-0.1-0.1-0.1-0.1l0,0c0-0.1,0.1-0.1,0.1-0.1l0,0c0.1,0,0.1,0.1,0.1,0.1l0,0
					C680.2,228.6,680.1,228.7,680.1,228.7z M680.1,229.2c-0.1,0-0.1-0.1-0.1-0.1l0,0c0-0.1,0.1-0.1,0.1-0.1l0,0
					c0.1,0,0.1,0.1,0.1,0.1l0,0C680.2,229.2,680.1,229.2,680.1,229.2z M680.1,229.7c-0.1,0-0.1-0.1-0.1-0.1l0,0
					c0-0.1,0.1-0.1,0.1-0.1l0,0c0.1,0,0.1,0.1,0.1,0.1l0,0C680.2,229.7,680.1,229.7,680.1,229.7z M680.1,230.2
					c-0.1,0-0.1-0.1-0.1-0.1l0,0c0-0.1,0.1-0.1,0.1-0.1l0,0c0.1,0,0.1,0.1,0.1,0.1l0,0C680.2,230.2,680.1,230.2,680.1,230.2z
					 M680.1,230.7c-0.1,0-0.1-0.1-0.1-0.1l0,0c0-0.1,0.1-0.1,0.1-0.1l0,0c0.1,0,0.1,0.1,0.1,0.1l0,0
					C680.2,230.7,680.1,230.7,680.1,230.7z M680.1,231.2c-0.1,0-0.1-0.1-0.1-0.1l0,0c0-0.1,0.1-0.1,0.1-0.1l0,0
					c0.1,0,0.1,0.1,0.1,0.1l0,0C680.2,231.2,680.1,231.2,680.1,231.2z M680.1,231.7c-0.1,0-0.1-0.1-0.1-0.1l0,0
					c0-0.1,0.1-0.1,0.1-0.1l0,0c0.1,0,0.1,0.1,0.1,0.1l0,0C680.2,231.7,680.1,231.7,680.1,231.7z M680.1,232.3
					c-0.1,0-0.1-0.1-0.1-0.1l0,0c0-0.1,0.1-0.1,0.1-0.1l0,0c0.1,0,0.1,0.1,0.1,0.1l0,0C680.2,232.2,680.1,232.3,680.1,232.3z
					 M680.1,234.8c-0.1,0-0.1-0.1-0.1-0.1l0,0c0-0.1,0.1-0.1,0.1-0.1l0,0c0.1,0,0.1,0.1,0.1,0.1l0,0
					C680.2,234.7,680.1,234.8,680.1,234.8z M680.1,235.3c-0.1,0-0.1-0.1-0.1-0.1l0,0c0-0.1,0.1-0.1,0.1-0.1l0,0
					c0.1,0,0.1,0.1,0.1,0.1l0,0C680.2,235.2,680.1,235.3,680.1,235.3z M680.1,235.8c-0.1,0-0.1-0.1-0.1-0.1l0,0
					c0-0.1,0.1-0.1,0.1-0.1l0,0c0.1,0,0.1,0.1,0.1,0.1l0,0C680.2,235.7,680.1,235.8,680.1,235.8z M680.1,236.3
					c-0.1,0-0.1-0.1-0.1-0.1l0,0c0-0.1,0.1-0.1,0.1-0.1l0,0c0.1,0,0.1,0.1,0.1,0.1l0,0C680.2,236.3,680.1,236.3,680.1,236.3z
					 M680.1,236.8c-0.1,0-0.1-0.1-0.1-0.1l0,0c0-0.1,0.1-0.1,0.1-0.1l0,0c0.1,0,0.1,0.1,0.1,0.1l0,0
					C680.2,236.8,680.1,236.8,680.1,236.8z M680.1,237.3c-0.1,0-0.1-0.1-0.1-0.1l0,0c0-0.1,0.1-0.1,0.1-0.1l0,0
					c0.1,0,0.1,0.1,0.1,0.1l0,0C680.2,237.3,680.1,237.3,680.1,237.3z M680.1,237.8c-0.1,0-0.1-0.1-0.1-0.1l0,0
					c0-0.1,0.1-0.1,0.1-0.1l0,0c0.1,0,0.1,0.1,0.1,0.1l0,0C680.2,237.8,680.1,237.8,680.1,237.8z M680.1,238.3
					c-0.1,0-0.1-0.1-0.1-0.1l0,0c0-0.1,0.1-0.1,0.1-0.1l0,0c0.1,0,0.1,0.1,0.1,0.1l0,0C680.2,238.3,680.1,238.3,680.1,238.3z
					 M680.1,238.8c-0.1,0-0.1-0.1-0.1-0.1l0,0c0-0.1,0.1-0.1,0.1-0.1l0,0c0.1,0,0.1,0.1,0.1,0.1l0,0
					C680.2,238.8,680.1,238.8,680.1,238.8z M680.1,239.4c-0.1,0-0.1-0.1-0.1-0.1l0,0c0-0.1,0.1-0.1,0.1-0.1l0,0
					c0.1,0,0.1,0.1,0.1,0.1l0,0C680.2,239.3,680.1,239.4,680.1,239.4z M680.1,239.9c-0.1,0-0.1-0.1-0.1-0.1l0,0
					c0-0.1,0.1-0.1,0.1-0.1l0,0c0.1,0,0.1,0.1,0.1,0.1l0,0C680.2,239.8,680.1,239.9,680.1,239.9z M680.1,240.4
					c-0.1,0-0.1-0.1-0.1-0.1l0,0c0-0.1,0.1-0.1,0.1-0.1l0,0c0.1,0,0.1,0.1,0.1,0.1l0,0C680.2,240.3,680.1,240.4,680.1,240.4z
					 M680.1,240.9c-0.1,0-0.1-0.1-0.1-0.1l0,0c0-0.1,0.1-0.1,0.1-0.1l0,0c0.1,0,0.1,0.1,0.1,0.1l0,0
					C680.2,240.8,680.1,240.9,680.1,240.9z M680.1,241.4c-0.1,0-0.1-0.1-0.1-0.1l0,0c0-0.1,0.1-0.1,0.1-0.1l0,0
					c0.1,0,0.1,0.1,0.1,0.1l0,0C680.2,241.3,680.1,241.4,680.1,241.4z M680.1,241.9c-0.1,0-0.1-0.1-0.1-0.1l0,0
					c0-0.1,0.1-0.1,0.1-0.1l0,0c0.1,0,0.1,0.1,0.1,0.1l0,0C680.2,241.8,680.1,241.9,680.1,241.9z M680.1,242.4
					c-0.1,0-0.1-0.1-0.1-0.1l0,0c0-0.1,0.1-0.1,0.1-0.1l0,0c0.1,0,0.1,0.1,0.1,0.1l0,0C680.2,242.3,680.1,242.4,680.1,242.4z
					 M680.1,242.9c-0.1,0-0.1-0.1-0.1-0.1l0,0c0-0.1,0.1-0.1,0.1-0.1l0,0c0.1,0,0.1,0.1,0.1,0.1l0,0
					C680.2,242.8,680.1,242.9,680.1,242.9z M680.1,243.4c-0.1,0-0.1-0.1-0.1-0.1l0,0c0-0.1,0.1-0.1,0.1-0.1l0,0
					c0.1,0,0.1,0.1,0.1,0.1l0,0C680.2,243.4,680.1,243.4,680.1,243.4z M680.1,243.9c-0.1,0-0.1-0.1-0.1-0.1l0,0
					c0-0.1,0.1-0.1,0.1-0.1l0,0c0.1,0,0.1,0.1,0.1,0.1l0,0C680.2,243.9,680.1,243.9,680.1,243.9z M680.1,244.4
					c-0.1,0-0.1-0.1-0.1-0.1l0,0c0-0.1,0.1-0.1,0.1-0.1l0,0c0.1,0,0.1,0.1,0.1,0.1l0,0C680.2,244.4,680.1,244.4,680.1,244.4z
					 M680.1,244.9c-0.1,0-0.1-0.1-0.1-0.1l0,0c0-0.1,0.1-0.1,0.1-0.1l0,0c0.1,0,0.1,0.1,0.1,0.1l0,0
					C680.2,244.9,680.1,244.9,680.1,244.9z M680.1,245.4c-0.1,0-0.1-0.1-0.1-0.1l0,0c0-0.1,0.1-0.1,0.1-0.1l0,0
					c0.1,0,0.1,0.1,0.1,0.1l0,0C680.2,245.4,680.1,245.4,680.1,245.4z M680.1,245.9c-0.1,0-0.1-0.1-0.1-0.1l0,0
					c0-0.1,0.1-0.1,0.1-0.1l0,0c0.1,0,0.1,0.1,0.1,0.1l0,0C680.2,245.9,680.1,245.9,680.1,245.9z M680.1,246.5
					c-0.1,0-0.1-0.1-0.1-0.1l0,0c0-0.1,0.1-0.1,0.1-0.1l0,0c0.1,0,0.1,0.1,0.1,0.1l0,0C680.2,246.4,680.1,246.5,680.1,246.5z
					 M680.1,247c-0.1,0-0.1-0.1-0.1-0.1l0,0c0-0.1,0.1-0.1,0.1-0.1l0,0c0.1,0,0.1,0.1,0.1,0.1l0,0C680.2,246.9,680.1,247,680.1,247z
					 M680.1,247.5c-0.1,0-0.1-0.1-0.1-0.1l0,0c0-0.1,0.1-0.1,0.1-0.1l0,0c0.1,0,0.1,0.1,0.1,0.1l0,0
					C680.2,247.4,680.1,247.5,680.1,247.5z"/>
			</g>
			<g>
				<path d="M680.2,218.9C680.2,219,680.2,219,680.2,218.9c-0.1,0.1-0.1,0.1-0.1,0.1s-0.1,0-0.1,0c0,0,0-0.1,0-0.2c0,0,0.1,0,0.1,0
					C680.1,218.8,680.1,218.8,680.2,218.9C680.2,218.9,680.2,218.9,680.2,218.9z"/>
			</g>
		</g>
		<g>
			<g>
				<path d="M679.9,233.8C679.9,233.7,679.9,233.7,679.9,233.8c0-0.2,0-0.3,0.1-0.3c0.1,0,0.1,0,0.2,0l0.3,0.1c0-0.1,0-0.2-0.1-0.2
					l0,0c0,0,0-0.1,0.1-0.1c0.1,0.1,0.2,0.2,0.2,0.3c0,0,0,0,0,0c0.1,0.1,0.2,0.2,0.2,0.2c0,0.1-0.1,0.2-0.2,0.2c-0.1,0-0.1,0-0.2,0
					l-0.8-0.3v-0.2L679.9,233.8z M680.5,233.8c0,0.1-0.1,0.1-0.2,0.1l0.1,0c0,0,0.1,0,0.1,0c0,0,0.1,0,0.1-0.1
					C680.6,233.8,680.6,233.8,680.5,233.8z M680.4,233.7l-0.3-0.1c0,0-0.1,0-0.1,0c0,0-0.1,0-0.1,0.1c0,0.1,0.2,0.2,0.3,0.1
					C680.3,233.8,680.4,233.8,680.4,233.7z"/>
				<path d="M680.4,233l-0.5-0.2v-0.2l0.8,0.3c-0.1-0.1-0.2-0.2-0.3-0.3l0,0c0,0,0-0.1,0.1-0.1c0.2,0.1,0.3,0.3,0.4,0.4l0.2,0.1
					c0.2,0.1,0.2,0.3,0,0.4c-0.1,0-0.2-0.1-0.3-0.3l-0.2-0.1c0.1,0.1,0.1,0.1,0.1,0.2c0,0.1-0.1,0.2-0.3,0.1l-0.6-0.2V233l0.6,0.2
					c0,0,0.1,0,0.1,0C680.6,233.2,680.5,233.1,680.4,233z M681,233.2l-0.1,0C680.9,233.3,680.9,233.3,681,233.2
					C681,233.3,681,233.2,681,233.2z"/>
			</g>
		</g>
		<g>
			<path d="M682.1,234.7c-0.3,0-0.4-0.1-0.4-0.4s0.1-0.4,0.4-0.4h0.9c0.3,0,0.4,0.1,0.4,0.4s-0.1,0.4-0.4,0.4H682.1z M683,234.4
				c0.1,0,0.2,0,0.2-0.1s0-0.1-0.2-0.1h-0.9c-0.1,0-0.2,0-0.2,0.1s0,0.1,0.2,0.1H683z"/>
			<path d="M682.1,233.7c-0.3,0-0.4-0.1-0.4-0.4s0.1-0.4,0.4-0.4h0.9c0.3,0,0.4,0.1,0.4,0.4s-0.1,0.4-0.4,0.4H682.1z M683,233.5
				c0.1,0,0.2-0.1,0.2-0.1s0-0.1-0.2-0.1h-0.9c-0.1,0-0.2,0.1-0.2,0.1s0,0.1,0.2,0.1H683z"/>
			<g>
				<path d="M682.6,232.6v0.2c0,0,0,0.1-0.1,0.1s-0.1,0-0.1-0.1v-0.2C682.5,232.6,682.5,232.5,682.6,232.6
					C682.6,232.5,682.6,232.6,682.6,232.6z"/>
			</g>
			<g>
				<path d="M682.6,231v1.4c0,0,0,0.1-0.1,0.1s-0.1,0-0.1-0.1V231C682.5,230.9,682.5,230.9,682.6,231
					C682.6,230.9,682.6,230.9,682.6,231z"/>
			</g>
			<g>
				<g>
					<path d="M683.4,232.4C683.4,232.4,683.4,232.4,683.4,232.4C683.4,232.4,683.3,232.4,683.4,232.4c-0.2,0-0.5-0.1-1.9-0.6
						c0,0-0.1-0.1,0-0.1s0.1-0.1,0.1,0C682.9,232.1,683.3,232.3,683.4,232.4C683.4,232.3,683.4,232.3,683.4,232.4z"/>
				</g>
				<g>
					<path d="M683.4,231C683.4,231,683.4,231,683.4,231c-0.1,0.1-0.5,0.2-1.8,0.7l-0.1,0c0,0-0.1,0-0.1,0c0,0,0,0,0,0
						c0,0,0-0.1,0-0.1l0.1,0C682.9,231,683.2,230.9,683.4,231C683.3,230.9,683.4,230.9,683.4,231C683.4,231,683.4,231,683.4,231z"/>
				</g>
			</g>
			<path d="M683.4,235.6h-1.2c-0.3,0-0.4-0.1-0.4-0.4s0.1-0.4,0.4-0.4h0.9v0.3h-0.9c-0.1,0-0.2,0.1-0.2,0.1s0,0.1,0.2,0.1h1.3V235.6
				z"/>
			<path d="M681.7,235.7L681.7,235.7h0.2l0,0c0-0.1,0-0.1,0.2-0.1h0v-0.3C681.9,235.3,681.7,235.5,681.7,235.7z"/>
			<path d="M683.4,232.9L683.4,232.9h-0.2l0,0c0,0.1,0,0.1-0.2,0.1h0v0.3C683.3,233.2,683.4,233.1,683.4,232.9z"/>
			<rect x="681.4" y="233" width="1.5" height="0.3"/>
			<g>
				<path d="M682.7,233.7c0,0.5-0.3,0.8-0.8,0.8v-0.3c0.3,0,0.6-0.2,0.6-0.5H682.7z"/>
			</g>
			<path d="M683,234.8c0.1,0,0.2,0,0.2-0.1c0-0.1,0-0.1-0.2-0.1l0-0.3c0.3,0,0.4,0.1,0.4,0.3c0,0.2-0.2,0.3-0.4,0.3L683,234.8z"/>
			<rect x="682.7" y="234.8" width="0.1" height="0.3"/>
		</g>
	</g>
	<g>
		<path d="M675.5,218.7c-0.2,0-0.3-0.1-0.4-0.2c-0.1-0.1-0.2-0.2-0.2-0.4c0-0.2,0.1-0.3,0.2-0.4c0.1-0.1,0.3-0.2,0.4-0.2
			s0.3,0.1,0.4,0.2c0.1,0.1,0.2,0.2,0.2,0.4c0,0.2-0.1,0.3-0.2,0.4C675.8,218.6,675.7,218.7,675.5,218.7z M675.5,218.6
			c0.1,0,0.3,0,0.4-0.1c0.1-0.1,0.1-0.2,0.1-0.3c0-0.1,0-0.2-0.1-0.3c-0.1-0.1-0.2-0.1-0.4-0.1s-0.3,0-0.4,0.1
			c-0.1,0.1-0.1,0.2-0.1,0.3s0,0.2,0.1,0.3C675.2,218.5,675.3,218.6,675.5,218.6z M675.5,218.2h0.3v0.1h-0.7v-0.2
			c0-0.1,0-0.1,0.1-0.2c0,0,0.1-0.1,0.2-0.1c0,0,0.1,0,0.1,0c0,0,0,0,0.1,0.1c0,0,0-0.1,0.1-0.1s0.1,0,0.1,0h0c0,0,0,0,0.1,0
			c0,0,0,0,0,0h0v0.1c0,0,0,0,0,0c0,0,0,0-0.1,0h0c0,0-0.1,0-0.1,0c0,0,0,0,0,0.1V218.2z M675.4,218.2v-0.1c0,0,0-0.1,0-0.1
			c0,0,0,0-0.1,0c0,0-0.1,0-0.1,0s0,0.1,0,0.1v0.1H675.4z"/>
	</g>
	<path d="M659.4,233.4l-9.7-9.7c-0.3,0.3-0.6,0.6-0.9,0.8l-1.3,0.8c-0.6,0.3-1.1,1.2-1.1,1.9v1.5c0,0.7-0.3,1.7-0.6,2.3l-0.8,1.3
		c-0.3,0.6-0.3,1.6,0,2.2l0.8,1.3c0.3,0.6,0.6,1.6,0.6,2.3v1.5c0,0.7,0.5,1.5,1.1,1.9l1.3,0.8c0.3,0.2,0.6,0.4,0.9,0.8L659.4,233.4z
		"/>
	<g>
		<path d="M659.4,235.4l7.8,7.8c0,0-0.1,0.1-0.1,0.1l-0.8,1.3c-0.1,0.2-0.5,0.4-0.6,0.4h-1.5c-0.9,0-2.2,0.3-3,0.8l-1.3,0.8
			c0,0-0.2,0.1-0.4,0.1s-0.3-0.1-0.4-0.1l-1.3-0.8c-0.8-0.5-2.1-0.8-3-0.8h-1.5c-0.2,0-0.5-0.2-0.6-0.4l-0.8-1.3
			c0,0-0.1-0.1-0.1-0.1L659.4,235.4 M659.4,233.4l-9.7,9.7c0.3,0.3,0.6,0.6,0.8,0.9l0.8,1.3c0.3,0.6,1.2,1.1,1.9,1.1h1.5
			c0.7,0,1.7,0.3,2.3,0.6l1.3,0.8c0.3,0.2,0.7,0.3,1.1,0.3s0.8-0.1,1.1-0.3l1.3-0.8c0.6-0.3,1.6-0.6,2.3-0.6h1.5
			c0.7,0,1.5-0.5,1.9-1.1l0.8-1.3c0.2-0.3,0.4-0.6,0.8-0.9L659.4,233.4L659.4,233.4z"/>
	</g>
	<g>
		<path d="M659.4,220.1c0.2,0,0.3,0.1,0.4,0.1l1.3,0.8c0.8,0.5,2.1,0.8,3,0.8h1.5c0.2,0,0.5,0.2,0.6,0.4l0.8,1.3
			c0,0,0.1,0.1,0.1,0.1l-7.8,7.8l-7.8-7.8c0,0,0.1-0.1,0.1-0.1l0.8-1.3c0.1-0.2,0.5-0.4,0.6-0.4h1.5c0.9,0,2.2-0.3,3-0.8l1.3-0.8
			C659,220.2,659.2,220.1,659.4,220.1 M659.4,218.7c-0.4,0-0.8,0.1-1.1,0.3l-1.3,0.8c-0.6,0.3-1.6,0.6-2.3,0.6h-1.5
			c-0.7,0-1.5,0.5-1.9,1.1l-0.8,1.3c-0.2,0.3-0.4,0.6-0.8,0.9l9.7,9.7l9.7-9.7c-0.3-0.3-0.6-0.6-0.8-0.9l-0.8-1.3
			c-0.3-0.6-1.2-1.1-1.9-1.1h-1.5c-0.7,0-1.7-0.3-2.3-0.6l-1.3-0.8C660.1,218.8,659.8,218.7,659.4,218.7L659.4,218.7z"/>
	</g>
	<g>
		<path d="M671,227.3v1.4c0,0.9,0.3,2.2,0.8,3l0.8,1.3c0.1,0.2,0.1,0.6,0,0.7l-0.8,1.3c-0.5,0.8-0.8,2.1-0.8,3v1.4h-13l3.8-3.8
			l1.4-1.4l1-1l-1-1l-1.4-1.4l-3.8-3.8H671 M672,225.8h-17.4l6.2,6.2l1.4,1.4l-1.4,1.4l-6.2,6.2H672c0.3-0.4,0.5-0.9,0.5-1.3v-1.5
			c0-0.7,0.3-1.7,0.6-2.3l0.8-1.3c0.3-0.6,0.3-1.6,0-2.2L673,231c-0.3-0.6-0.6-1.6-0.6-2.3v-1.5C672.4,226.7,672.2,226.2,672,225.8
			L672,225.8z"/>
	</g>
	<polygon points="666.3,240.8 655.2,240.8 660.7,235.2 	"/>
	<polygon points="666.3,226.1 655.2,226.1 660.7,231.6 	"/>
</g>
<rect x="718.7" y="80.4" class="st0" width="2.8" height="111.8"/>
<g>
	<g>
		<g>
			<path d="M764.5,82.4v-2h13v2H772v2.3h5.6v2.1h-13v-2.1h5.6v-2.3H764.5z"/>
			<path d="M764.5,94.9v-2.1l2.4-0.4V90l-2.4-0.4v-1.9l13,2.1v3L764.5,94.9z M768.7,90.3v2l6.6-1L768.7,90.3z"/>
			<path d="M769.4,101.8h-1.7c-2.1,0-3.3-1-3.3-3c0-2,1.2-3,3.3-3h6.8c2.1,0,3.3,1,3.3,3c0,2-1.2,3-3.3,3h-1.3v-1.9h1.4
				c0.9,0,1.3-0.4,1.3-1.1c0-0.7-0.4-1.1-1.3-1.1h-7c-0.9,0-1.3,0.4-1.3,1.1c0,0.7,0.3,1.1,1.3,1.1h1.9V101.8z"/>
			<path d="M769.7,105.7l-1.2-0.6h-4v-2h13v2h-5.7l5.7,2.7v2l-5.8-2.8l-7.2,2.8v-2.1L769.7,105.7z"/>
			<path d="M777.5,113.6v2h-13v-2H777.5z"/>
			<path d="M774,119h-9.4v-1.8h13v2.6l-7.8,2.1h7.8v1.8h-13v-2.1L774,119z"/>
			<path d="M777.5,127.4v6.3h-1.9v-2.1h-11.2v-2h11.2v-2.1H777.5z"/>
			<path d="M764.5,136.6v-2h13v2H772v2.3h5.6v2.1h-13v-2.1h5.6v-2.3H764.5z"/>
			<path d="M772.1,144.5v2.8h-1.9v-2.8h-3.8v3.5h-1.9v-5.6h13v5.6h-1.9v-3.5H772.1z"/>
			<path d="M774.6,158.3h-0.5c-1.3,0-2.2-0.4-2.6-1.3c-0.4,1.1-1.4,1.5-2.8,1.5h-1.1c-2,0-3.1-1.1-3.1-3.1v-3.2h13v3.1
				C777.5,157.4,776.6,158.3,774.6,158.3z M770.4,154.3h-4v1.2c0,0.7,0.3,1.1,1.3,1.1h1.1c1.2,0,1.6-0.4,1.6-1.3V154.3z
				 M775.7,154.3h-3.4v0.8c0,0.8,0.3,1.2,1.4,1.2h0.7c0.9,0,1.3-0.3,1.3-1V154.3z"/>
			<path d="M774.4,159.6c2.1,0,3.3,1.1,3.3,3.1s-1.2,3.1-3.3,3.1h-6.8c-2.1,0-3.3-1.1-3.3-3.1s1.2-3.1,3.3-3.1H774.4z M767.5,161.6
				c-0.9,0-1.3,0.4-1.3,1.1s0.4,1.1,1.3,1.1h7c0.9,0,1.3-0.4,1.3-1.1s-0.4-1.1-1.3-1.1H767.5z"/>
			<path d="M777.5,166.5v6.3h-1.9v-2.1h-11.2v-2h11.2v-2.1H777.5z"/>
			<path d="M777.5,173.1v6.3h-1.9v-2.1h-11.2v-2h11.2v-2.1H777.5z"/>
			<path d="M777.5,180.3v2h-11.2v3.4h-1.9v-5.4H777.5z"/>
			<path d="M772.1,188.7v2.8h-1.9v-2.8h-3.8v3.5h-1.9v-5.6h13v5.6h-1.9v-3.5H772.1z"/>
		</g>
	</g>
	<g>
		<g>
			<g>
				<path d="M795.7,126.7c0.3,0,0.5,0.3,0.5,0.6c0,0.2-0.1,0.4-0.3,0.5c0.2,0.1,0.3,0.3,0.3,0.5c0,0.3-0.3,0.6-0.6,0.6h-3
					c-0.3,0-0.6-0.2-0.6-0.6c0-0.2,0.1-0.4,0.3-0.5c-0.2-0.1-0.3-0.3-0.3-0.5c0-0.3,0.2-0.5,0.5-0.6l-3.6-9.2
					c-0.2-0.6-0.3-1.3-0.3-1.9V99.2c0-0.6,0.5-1.1,1.2-1.1h8.6c0.7,0,1.2,0.5,1.2,1.1v16.4c0,0.7-0.1,1.3-0.3,1.9L795.7,126.7z"/>
			</g>
			<g>
				<path d="M803.4,129c0.2,0.2,0.2,0.6,0,0.8c-0.1,0.1-0.4,0.2-0.6,0.1c0.1,0.2,0,0.4-0.1,0.6c-0.2,0.2-0.6,0.2-0.8,0l-2.1-2.1
					c-0.2-0.2-0.2-0.6,0-0.8c0.2-0.2,0.4-0.2,0.6-0.1c-0.1-0.2,0-0.4,0.1-0.6c0.2-0.2,0.5-0.2,0.8,0l4-9.1c0.3-0.6,0.7-1.1,1.1-1.6
					l11.6-11.6c0.4-0.4,1.2-0.4,1.6,0l6.1,6.1c0.5,0.5,0.5,1.2,0,1.6l-11.6,11.6c-0.5,0.5-1,0.9-1.6,1.1L803.4,129z"/>
			</g>
			<g>
				<path d="M806.1,137c0,0.3-0.3,0.5-0.6,0.5c-0.2,0-0.4-0.1-0.5-0.3c-0.1,0.2-0.3,0.3-0.5,0.3c-0.3,0-0.6-0.3-0.6-0.6v-3
					c0-0.3,0.2-0.6,0.6-0.6c0.2,0,0.4,0.1,0.5,0.3c0.1-0.2,0.3-0.3,0.5-0.3c0.3,0,0.5,0.2,0.6,0.5l9.2-3.6c0.6-0.2,1.3-0.3,1.9-0.3
					h16.4c0.6,0,1.1,0.5,1.1,1.2v8.6c0,0.7-0.5,1.2-1.1,1.2l-16.4,0c-0.7,0-1.3-0.1-1.9-0.3L806.1,137z"/>
			</g>
			<g>
				<path d="M800.1,154.9c0.2,0.6,0.3,1.3,0.3,1.9v16.4c0,0.6-0.5,1.1-1.2,1.1h-8.6c-0.7,0-1.2-0.5-1.2-1.1v-16.4
					c0-0.7,0.1-1.3,0.3-1.9l3.6-9.2c-0.3,0-0.5-0.3-0.5-0.6c0-0.2,0.1-0.4,0.3-0.5c-0.2-0.1-0.3-0.3-0.3-0.5c0-0.3,0.3-0.6,0.6-0.6
					h3c0.3,0,0.6,0.2,0.6,0.6c0,0.2-0.1,0.4-0.3,0.5c0.2,0.1,0.3,0.3,0.3,0.5c0,0.3-0.2,0.5-0.5,0.6L800.1,154.9z"/>
			</g>
			<g>
				<path d="M813.3,147.3c0.6,0.3,1.1,0.7,1.6,1.1l11.6,11.6c0.4,0.4,0.4,1.2,0,1.6l-6.1,6.1c-0.5,0.5-1.2,0.5-1.6,0l-11.6-11.6
					c-0.5-0.5-0.9-1-1.1-1.6l-4-9.1c-0.2,0.2-0.5,0.2-0.7,0c-0.2-0.2-0.2-0.4-0.1-0.6c-0.2,0.1-0.4,0-0.6-0.1
					c-0.2-0.2-0.2-0.6,0-0.8l2.1-2.1c0.2-0.2,0.6-0.2,0.8,0c0.1,0.1,0.2,0.4,0.1,0.6c0.2-0.1,0.4,0,0.6,0.1c0.2,0.2,0.2,0.5,0,0.8
					L813.3,147.3z"/>
			</g>
		</g>
	</g>
</g>
<g>
	<g>
		<defs>
			<rect id="SVGID_3_" x="808.5" y="214.7" width="26.3" height="33.4"/>
		</defs>
		<clipPath id="SVGID_4_">
			<use xlink:href="#SVGID_3_"  style="overflow:visible;"/>
		</clipPath>
		<g transform="matrix(1 0 0 1 1.075031e-005 -6.622315e-006)" style="clip-path:url(#SVGID_4_);">
			
				<image style="overflow:visible;" width="1654" height="1299" xlink:href="19658A49.jpg"  transform="matrix(0 2.020900e-002 -2.020900e-002 0 834.7666 214.6953)">
			</image>
		</g>
	</g>
</g>
<g>
	<g>
		<g>
			<path d="M801.4,26.1l3.1,0.5v0.9h-4.3v-0.6h3.1l-3.1-0.5v-0.6l3-0.5h-3v-0.6h4.3v0.9L801.4,26.1z"/>
			<path d="M800.2,30.2v-0.7l0.8-0.1v-0.8l-0.8-0.1v-0.6l4.3,0.7v1L800.2,30.2z M801.5,28.6v0.7l2.2-0.3L801.5,28.6z"/>
			<path d="M801.9,31.4l-0.4-0.2h-1.3v-0.7h4.3v0.7h-1.9l1.9,0.9v0.7l-1.9-0.9l-2.4,0.9V32L801.9,31.4z"/>
			<path d="M802.7,33.7v0.9h-0.6v-0.9h-1.3v1.2h-0.6V33h4.3v1.8h-0.6v-1.2H802.7z"/>
			<path d="M804.5,36.2c0,0.7-0.4,1-1.1,1h-0.1v-0.6h0.2c0.3,0,0.4-0.1,0.4-0.3s-0.1-0.3-0.4-0.3c-0.9,0-1.1,1.3-2.3,1.3
				c-0.7,0-1.1-0.3-1.1-1c0-0.7,0.4-1,1.1-1h0.3v0.6h-0.3c-0.3,0-0.4,0.1-0.4,0.4s0.1,0.4,0.4,0.4c0.9,0,1.1-1.3,2.3-1.3
				C804.1,35.2,804.5,35.5,804.5,36.2z"/>
			<path d="M804.5,37.4v2.1h-0.6v-0.7h-3.7v-0.7h3.7v-0.7H804.5z"/>
			<path d="M803.4,39.7c0.7,0,1.1,0.4,1.1,1c0,0.7-0.4,1-1.1,1h-2.2c-0.7,0-1.1-0.4-1.1-1c0-0.7,0.4-1,1.1-1H803.4z M801.2,40.4
				c-0.3,0-0.4,0.1-0.4,0.4s0.1,0.4,0.4,0.4h2.3c0.3,0,0.4-0.1,0.4-0.4s-0.1-0.4-0.4-0.4H801.2z"/>
			<path d="M800.2,43.6c0.1,0,0.2-0.1,0.5-0.1h0.7c0.4,0,0.5-0.1,0.5-0.4v-0.2h-1.8v-0.7h4.3v1c0,0.7-0.3,1-1,1h-0.3
				c-0.4,0-0.7-0.1-0.9-0.4c-0.1,0.3-0.5,0.4-0.9,0.4h-0.7c-0.2,0-0.4,0-0.5,0.1V43.6z M803.9,42.9h-1.3v0.3c0,0.3,0.1,0.4,0.5,0.4
				h0.4c0.3,0,0.4-0.1,0.4-0.3V42.9z"/>
			<path d="M801.4,46.1l3.1,0.5v0.9h-4.3v-0.6h3.1l-3.1-0.5v-0.6l3-0.5h-3v-0.6h4.3v0.9L801.4,46.1z"/>
			<path d="M804.5,48v0.7h-4.3V48H804.5z"/>
			<path d="M803.3,49.8h-3.1v-0.6h4.3V50l-2.6,0.7h2.6v0.6h-4.3v-0.7L803.3,49.8z"/>
			<path d="M802.6,52.8v0.9h-1.4c-0.7,0-1.1-0.3-1.1-1s0.4-1,1.1-1h2.2c0.7,0,1.1,0.3,1.1,1s-0.4,1-1.1,1H803v-0.6h0.5
				c0.3,0,0.4-0.1,0.4-0.4c0-0.2-0.1-0.4-0.4-0.4h-2.3c-0.3,0-0.4,0.1-0.4,0.4c0,0.2,0.1,0.4,0.4,0.4h0.8v-0.3H802.6z"/>
		</g>
		<g>
			<g>
				<path d="M799.2,24.8C799.2,24.7,799.3,24.7,799.2,24.8c0.1-0.1,0.1-0.1,0.1-0.1c0,0,0.1,0,0.1,0c0,0,0,0.1,0,0.2
					c0,0-0.1,0-0.1,0S799.3,24.9,799.2,24.8C799.2,24.8,799.2,24.8,799.2,24.8z"/>
			</g>
			<g>
				<path d="M799.4,53c0.1,0,0.1,0.1,0.1,0.1l0,0c0,0.1-0.1,0.1-0.1,0.1l0,0c-0.1,0-0.1-0.1-0.1-0.1l0,0
					C799.2,53.1,799.3,53,799.4,53z M799.4,52.5c0.1,0,0.1,0.1,0.1,0.1l0,0c0,0.1-0.1,0.1-0.1,0.1l0,0c-0.1,0-0.1-0.1-0.1-0.1l0,0
					C799.2,52.6,799.3,52.5,799.4,52.5z M799.4,52c0.1,0,0.1,0.1,0.1,0.1l0,0c0,0.1-0.1,0.1-0.1,0.1l0,0c-0.1,0-0.1-0.1-0.1-0.1l0,0
					C799.2,52.1,799.3,52,799.4,52z M799.4,51.5c0.1,0,0.1,0.1,0.1,0.1l0,0c0,0.1-0.1,0.1-0.1,0.1l0,0c-0.1,0-0.1-0.1-0.1-0.1l0,0
					C799.2,51.6,799.3,51.5,799.4,51.5z M799.4,51c0.1,0,0.1,0.1,0.1,0.1l0,0c0,0.1-0.1,0.1-0.1,0.1l0,0c-0.1,0-0.1-0.1-0.1-0.1l0,0
					C799.2,51.1,799.3,51,799.4,51z M799.4,50.5c0.1,0,0.1,0.1,0.1,0.1l0,0c0,0.1-0.1,0.1-0.1,0.1l0,0c-0.1,0-0.1-0.1-0.1-0.1l0,0
					C799.2,50.5,799.3,50.5,799.4,50.5z M799.4,50c0.1,0,0.1,0.1,0.1,0.1l0,0c0,0.1-0.1,0.1-0.1,0.1l0,0c-0.1,0-0.1-0.1-0.1-0.1l0,0
					C799.2,50,799.3,50,799.4,50z M799.4,49.5c0.1,0,0.1,0.1,0.1,0.1l0,0c0,0.1-0.1,0.1-0.1,0.1l0,0c-0.1,0-0.1-0.1-0.1-0.1l0,0
					C799.2,49.5,799.3,49.5,799.4,49.5z M799.4,49c0.1,0,0.1,0.1,0.1,0.1l0,0c0,0.1-0.1,0.1-0.1,0.1l0,0c-0.1,0-0.1-0.1-0.1-0.1l0,0
					C799.2,49,799.3,49,799.4,49z M799.4,48.5c0.1,0,0.1,0.1,0.1,0.1l0,0c0,0.1-0.1,0.1-0.1,0.1l0,0c-0.1,0-0.1-0.1-0.1-0.1l0,0
					C799.2,48.5,799.3,48.5,799.4,48.5z M799.4,48c0.1,0,0.1,0.1,0.1,0.1l0,0c0,0.1-0.1,0.1-0.1,0.1l0,0c-0.1,0-0.1-0.1-0.1-0.1l0,0
					C799.2,48,799.3,48,799.4,48z M799.4,47.4c0.1,0,0.1,0.1,0.1,0.1l0,0c0,0.1-0.1,0.1-0.1,0.1l0,0c-0.1,0-0.1-0.1-0.1-0.1l0,0
					C799.2,47.5,799.3,47.4,799.4,47.4z M799.4,46.9c0.1,0,0.1,0.1,0.1,0.1l0,0c0,0.1-0.1,0.1-0.1,0.1l0,0c-0.1,0-0.1-0.1-0.1-0.1
					l0,0C799.2,47,799.3,46.9,799.4,46.9z M799.4,46.4c0.1,0,0.1,0.1,0.1,0.1l0,0c0,0.1-0.1,0.1-0.1,0.1l0,0c-0.1,0-0.1-0.1-0.1-0.1
					l0,0C799.2,46.5,799.3,46.4,799.4,46.4z M799.4,45.9c0.1,0,0.1,0.1,0.1,0.1l0,0c0,0.1-0.1,0.1-0.1,0.1l0,0
					c-0.1,0-0.1-0.1-0.1-0.1l0,0C799.2,46,799.3,45.9,799.4,45.9z M799.4,45.4c0.1,0,0.1,0.1,0.1,0.1l0,0c0,0.1-0.1,0.1-0.1,0.1l0,0
					c-0.1,0-0.1-0.1-0.1-0.1l0,0C799.2,45.5,799.3,45.4,799.4,45.4z M799.4,44.9c0.1,0,0.1,0.1,0.1,0.1l0,0c0,0.1-0.1,0.1-0.1,0.1
					l0,0c-0.1,0-0.1-0.1-0.1-0.1l0,0C799.2,45,799.3,44.9,799.4,44.9z M799.4,44.4c0.1,0,0.1,0.1,0.1,0.1l0,0c0,0.1-0.1,0.1-0.1,0.1
					l0,0c-0.1,0-0.1-0.1-0.1-0.1l0,0C799.2,44.5,799.3,44.4,799.4,44.4z M799.4,43.9c0.1,0,0.1,0.1,0.1,0.1l0,0
					c0,0.1-0.1,0.1-0.1,0.1l0,0c-0.1,0-0.1-0.1-0.1-0.1l0,0C799.2,44,799.3,43.9,799.4,43.9z M799.4,43.4c0.1,0,0.1,0.1,0.1,0.1l0,0
					c0,0.1-0.1,0.1-0.1,0.1l0,0c-0.1,0-0.1-0.1-0.1-0.1l0,0C799.2,43.4,799.3,43.4,799.4,43.4z M799.4,42.9c0.1,0,0.1,0.1,0.1,0.1
					l0,0c0,0.1-0.1,0.1-0.1,0.1l0,0c-0.1,0-0.1-0.1-0.1-0.1l0,0C799.2,42.9,799.3,42.9,799.4,42.9z M799.4,42.4
					c0.1,0,0.1,0.1,0.1,0.1l0,0c0,0.1-0.1,0.1-0.1,0.1l0,0c-0.1,0-0.1-0.1-0.1-0.1l0,0C799.2,42.4,799.3,42.4,799.4,42.4z
					 M799.4,41.9c0.1,0,0.1,0.1,0.1,0.1l0,0c0,0.1-0.1,0.1-0.1,0.1l0,0c-0.1,0-0.1-0.1-0.1-0.1l0,0
					C799.2,41.9,799.3,41.9,799.4,41.9z M799.4,41.4c0.1,0,0.1,0.1,0.1,0.1l0,0c0,0.1-0.1,0.1-0.1,0.1l0,0c-0.1,0-0.1-0.1-0.1-0.1
					l0,0C799.2,41.4,799.3,41.4,799.4,41.4z M799.4,40.9c0.1,0,0.1,0.1,0.1,0.1l0,0c0,0.1-0.1,0.1-0.1,0.1l0,0
					c-0.1,0-0.1-0.1-0.1-0.1l0,0C799.2,40.9,799.3,40.9,799.4,40.9z M799.4,40.3c0.1,0,0.1,0.1,0.1,0.1l0,0c0,0.1-0.1,0.1-0.1,0.1
					l0,0c-0.1,0-0.1-0.1-0.1-0.1l0,0C799.2,40.4,799.3,40.3,799.4,40.3z M799.4,37.8c0.1,0,0.1,0.1,0.1,0.1l0,0
					c0,0.1-0.1,0.1-0.1,0.1l0,0c-0.1,0-0.1-0.1-0.1-0.1l0,0C799.2,37.9,799.3,37.8,799.4,37.8z M799.4,37.3c0.1,0,0.1,0.1,0.1,0.1
					l0,0c0,0.1-0.1,0.1-0.1,0.1l0,0c-0.1,0-0.1-0.1-0.1-0.1l0,0C799.2,37.4,799.3,37.3,799.4,37.3z M799.4,36.8
					c0.1,0,0.1,0.1,0.1,0.1l0,0c0,0.1-0.1,0.1-0.1,0.1l0,0c-0.1,0-0.1-0.1-0.1-0.1l0,0C799.2,36.9,799.3,36.8,799.4,36.8z
					 M799.4,36.3c0.1,0,0.1,0.1,0.1,0.1l0,0c0,0.1-0.1,0.1-0.1,0.1l0,0c-0.1,0-0.1-0.1-0.1-0.1l0,0
					C799.2,36.3,799.3,36.3,799.4,36.3z M799.4,35.8c0.1,0,0.1,0.1,0.1,0.1l0,0c0,0.1-0.1,0.1-0.1,0.1l0,0c-0.1,0-0.1-0.1-0.1-0.1
					l0,0C799.2,35.8,799.3,35.8,799.4,35.8z M799.4,35.3c0.1,0,0.1,0.1,0.1,0.1l0,0c0,0.1-0.1,0.1-0.1,0.1l0,0
					c-0.1,0-0.1-0.1-0.1-0.1l0,0C799.2,35.3,799.3,35.3,799.4,35.3z M799.4,34.8c0.1,0,0.1,0.1,0.1,0.1l0,0c0,0.1-0.1,0.1-0.1,0.1
					l0,0c-0.1,0-0.1-0.1-0.1-0.1l0,0C799.2,34.8,799.3,34.8,799.4,34.8z M799.4,34.3c0.1,0,0.1,0.1,0.1,0.1l0,0
					c0,0.1-0.1,0.1-0.1,0.1l0,0c-0.1,0-0.1-0.1-0.1-0.1l0,0C799.2,34.3,799.3,34.3,799.4,34.3z M799.4,33.8c0.1,0,0.1,0.1,0.1,0.1
					l0,0c0,0.1-0.1,0.1-0.1,0.1l0,0c-0.1,0-0.1-0.1-0.1-0.1l0,0C799.2,33.8,799.3,33.8,799.4,33.8z M799.4,33.2
					c0.1,0,0.1,0.1,0.1,0.1l0,0c0,0.1-0.1,0.1-0.1,0.1l0,0c-0.1,0-0.1-0.1-0.1-0.1l0,0C799.2,33.3,799.3,33.2,799.4,33.2z
					 M799.4,32.7c0.1,0,0.1,0.1,0.1,0.1l0,0c0,0.1-0.1,0.1-0.1,0.1l0,0c-0.1,0-0.1-0.1-0.1-0.1l0,0
					C799.2,32.8,799.3,32.7,799.4,32.7z M799.4,32.2c0.1,0,0.1,0.1,0.1,0.1l0,0c0,0.1-0.1,0.1-0.1,0.1l0,0c-0.1,0-0.1-0.1-0.1-0.1
					l0,0C799.2,32.3,799.3,32.2,799.4,32.2z M799.4,31.7c0.1,0,0.1,0.1,0.1,0.1l0,0c0,0.1-0.1,0.1-0.1,0.1l0,0
					c-0.1,0-0.1-0.1-0.1-0.1l0,0C799.2,31.8,799.3,31.7,799.4,31.7z M799.4,31.2c0.1,0,0.1,0.1,0.1,0.1l0,0c0,0.1-0.1,0.1-0.1,0.1
					l0,0c-0.1,0-0.1-0.1-0.1-0.1l0,0C799.2,31.3,799.3,31.2,799.4,31.2z M799.4,30.7c0.1,0,0.1,0.1,0.1,0.1l0,0
					c0,0.1-0.1,0.1-0.1,0.1l0,0c-0.1,0-0.1-0.1-0.1-0.1l0,0C799.2,30.8,799.3,30.7,799.4,30.7z M799.4,30.2c0.1,0,0.1,0.1,0.1,0.1
					l0,0c0,0.1-0.1,0.1-0.1,0.1l0,0c-0.1,0-0.1-0.1-0.1-0.1l0,0C799.2,30.3,799.3,30.2,799.4,30.2z M799.4,29.7
					c0.1,0,0.1,0.1,0.1,0.1l0,0c0,0.1-0.1,0.1-0.1,0.1l0,0c-0.1,0-0.1-0.1-0.1-0.1l0,0C799.2,29.8,799.3,29.7,799.4,29.7z
					 M799.4,29.2c0.1,0,0.1,0.1,0.1,0.1l0,0c0,0.1-0.1,0.1-0.1,0.1l0,0c-0.1,0-0.1-0.1-0.1-0.1l0,0
					C799.2,29.2,799.3,29.2,799.4,29.2z M799.4,28.7c0.1,0,0.1,0.1,0.1,0.1l0,0c0,0.1-0.1,0.1-0.1,0.1l0,0c-0.1,0-0.1-0.1-0.1-0.1
					l0,0C799.2,28.7,799.3,28.7,799.4,28.7z M799.4,28.2c0.1,0,0.1,0.1,0.1,0.1l0,0c0,0.1-0.1,0.1-0.1,0.1l0,0
					c-0.1,0-0.1-0.1-0.1-0.1l0,0C799.2,28.2,799.3,28.2,799.4,28.2z M799.4,27.7c0.1,0,0.1,0.1,0.1,0.1l0,0c0,0.1-0.1,0.1-0.1,0.1
					l0,0c-0.1,0-0.1-0.1-0.1-0.1l0,0C799.2,27.7,799.3,27.7,799.4,27.7z M799.4,27.2c0.1,0,0.1,0.1,0.1,0.1l0,0
					c0,0.1-0.1,0.1-0.1,0.1l0,0c-0.1,0-0.1-0.1-0.1-0.1l0,0C799.2,27.2,799.3,27.2,799.4,27.2z M799.4,26.7c0.1,0,0.1,0.1,0.1,0.1
					l0,0c0,0.1-0.1,0.1-0.1,0.1l0,0c-0.1,0-0.1-0.1-0.1-0.1l0,0C799.2,26.7,799.3,26.7,799.4,26.7z M799.4,26.1
					c0.1,0,0.1,0.1,0.1,0.1l0,0c0,0.1-0.1,0.1-0.1,0.1l0,0c-0.1,0-0.1-0.1-0.1-0.1l0,0C799.2,26.2,799.3,26.1,799.4,26.1z
					 M799.4,25.6c0.1,0,0.1,0.1,0.1,0.1l0,0c0,0.1-0.1,0.1-0.1,0.1l0,0c-0.1,0-0.1-0.1-0.1-0.1l0,0
					C799.2,25.7,799.3,25.6,799.4,25.6z M799.4,25.1c0.1,0,0.1,0.1,0.1,0.1l0,0c0,0.1-0.1,0.1-0.1,0.1l0,0c-0.1,0-0.1-0.1-0.1-0.1
					l0,0C799.2,25.2,799.3,25.1,799.4,25.1z"/>
			</g>
			<g>
				<path d="M799.2,53.7C799.2,53.6,799.2,53.6,799.2,53.7c0.1-0.1,0.1-0.1,0.1-0.1s0.1,0,0.1,0c0,0,0,0.1,0,0.2c0,0-0.1,0-0.1,0
					C799.3,53.8,799.3,53.8,799.2,53.7C799.2,53.7,799.2,53.7,799.2,53.7z"/>
			</g>
		</g>
		<g>
			<g>
				<path d="M799.5,38.8c0,0,0,0.1,0,0.1c0,0.1-0.1,0.2-0.1,0.2c-0.1,0-0.1,0-0.2,0l-0.3-0.1c0,0.1,0,0.2,0.1,0.2l0,0
					c0,0,0,0.1-0.1,0.1c-0.1-0.1-0.2-0.2-0.2-0.3c0,0,0,0,0,0c-0.1-0.1-0.2-0.2-0.2-0.2c0-0.1,0.1-0.2,0.2-0.2c0.1,0,0.1,0,0.2,0
					l0.8,0.3V39L799.5,38.8z M798.9,38.8c0-0.1,0.1-0.1,0.2-0.1l-0.1,0c0,0-0.1,0-0.1,0c0,0-0.1,0-0.1,0.1
					C798.8,38.8,798.9,38.8,798.9,38.8z M799,38.9l0.3,0.1c0,0,0.1,0,0.1,0c0,0,0.1,0,0.1-0.1c0-0.1-0.2-0.2-0.3-0.1
					C799.1,38.8,799,38.8,799,38.9z"/>
				<path d="M799,39.6l0.5,0.2v0.2l-0.8-0.3c0.1,0.1,0.2,0.2,0.3,0.3l0,0c0,0,0,0.1-0.1,0.1c-0.2-0.1-0.3-0.3-0.4-0.4l-0.2-0.1
					c-0.2-0.1-0.2-0.3,0-0.4c0.1,0,0.2,0.1,0.3,0.3l0.2,0.1c-0.1-0.1-0.1-0.1-0.1-0.2c0-0.1,0.1-0.2,0.3-0.1l0.6,0.2v0.2l-0.6-0.2
					c0,0-0.1,0-0.1,0C798.8,39.4,798.9,39.5,799,39.6z M798.5,39.4l0.1,0C798.5,39.3,798.5,39.3,798.5,39.4
					C798.4,39.3,798.4,39.4,798.5,39.4z"/>
			</g>
		</g>
		<g>
			<path d="M797.3,37.9c0.3,0,0.4,0.1,0.4,0.4s-0.1,0.4-0.4,0.4h-0.9c-0.3,0-0.4-0.1-0.4-0.4s0.1-0.4,0.4-0.4H797.3z M796.4,38.2
				c-0.1,0-0.2,0-0.2,0.1s0,0.1,0.2,0.1h0.9c0.1,0,0.2,0,0.2-0.1s0-0.1-0.2-0.1H796.4z"/>
			<path d="M797.3,38.8c0.3,0,0.4,0.1,0.4,0.4c0,0.2-0.1,0.4-0.4,0.4h-0.9c-0.3,0-0.4-0.1-0.4-0.4c0-0.2,0.1-0.4,0.4-0.4H797.3z
				 M796.4,39.1c-0.1,0-0.2,0.1-0.2,0.1c0,0.1,0,0.1,0.2,0.1h0.9c0.1,0,0.2-0.1,0.2-0.1c0-0.1,0-0.1-0.2-0.1H796.4z"/>
			<g>
				<path d="M796.8,40v-0.2c0,0,0-0.1,0.1-0.1s0.1,0,0.1,0.1V40C796.9,40,796.9,40.1,796.8,40C796.8,40.1,796.8,40,796.8,40z"/>
			</g>
			<g>
				<path d="M796.8,41.6v-1.4c0,0,0-0.1,0.1-0.1s0.1,0,0.1,0.1v1.4C796.9,41.6,796.9,41.7,796.8,41.6
					C796.8,41.7,796.8,41.6,796.8,41.6z"/>
			</g>
			<g>
				<g>
					<path d="M796,40.2C796,40.2,796,40.2,796,40.2C796,40.2,796.1,40.2,796,40.2c0.2,0,0.5,0.1,1.9,0.6c0,0,0.1,0.1,0,0.1
						c0,0-0.1,0.1-0.1,0C796.5,40.5,796.1,40.3,796,40.2C796,40.3,796,40.3,796,40.2z"/>
				</g>
				<g>
					<path d="M796,41.6C796,41.6,796,41.6,796,41.6c0.1-0.1,0.5-0.2,1.8-0.7l0.1,0c0,0,0.1,0,0.1,0c0,0,0,0,0,0c0,0,0,0.1,0,0.1
						l-0.1,0C796.5,41.6,796.2,41.7,796,41.6C796.1,41.7,796,41.7,796,41.6C796,41.6,796,41.6,796,41.6z"/>
				</g>
			</g>
			<path d="M796,37h1.2c0.3,0,0.4,0.1,0.4,0.4c0,0.2-0.1,0.4-0.4,0.4h-0.9v-0.3h0.9c0.1,0,0.2-0.1,0.2-0.1c0-0.1,0-0.1-0.2-0.1H796
				V37z"/>
			<path d="M797.7,36.9L797.7,36.9h-0.2l0,0c0,0.1,0,0.1-0.2,0.1h0v0.3C797.5,37.3,797.7,37.1,797.7,36.9z"/>
			<path d="M796,39.7L796,39.7h0.2l0,0c0-0.1,0-0.1,0.2-0.1h0v-0.3C796.2,39.4,796,39.5,796,39.7z"/>
			<rect x="796.5" y="39.4" width="1.5" height="0.3"/>
			<g>
				<path d="M796.7,38.8c0-0.5,0.3-0.8,0.8-0.8v0.3c-0.3,0-0.6,0.2-0.6,0.5H796.7z"/>
			</g>
			<path d="M796.4,37.8c-0.1,0-0.2,0-0.2,0.1c0,0.1,0,0.1,0.2,0.1l0,0.3c-0.3,0-0.4-0.1-0.4-0.3c0-0.2,0.2-0.3,0.4-0.3L796.4,37.8z"
				/>
			<rect x="796.6" y="37.5" width="0.1" height="0.3"/>
		</g>
	</g>
	<g>
		<path d="M803.9,53.9c0.2,0,0.3,0.1,0.4,0.2c0.1,0.1,0.2,0.2,0.2,0.4c0,0.2-0.1,0.3-0.2,0.4c-0.1,0.1-0.3,0.2-0.4,0.2
			s-0.3-0.1-0.4-0.2c-0.1-0.1-0.2-0.2-0.2-0.4s0.1-0.3,0.2-0.4C803.6,54,803.8,53.9,803.9,53.9z M803.9,54c-0.1,0-0.3,0-0.4,0.1
			c-0.1,0.1-0.1,0.2-0.1,0.3c0,0.1,0,0.2,0.1,0.3c0.1,0.1,0.2,0.1,0.4,0.1s0.3,0,0.4-0.1c0.1-0.1,0.1-0.2,0.1-0.3s0-0.2-0.1-0.3
			C804.2,54.1,804.1,54,803.9,54z M803.9,54.4h-0.3v-0.1h0.7v0.2c0,0.1,0,0.1-0.1,0.2c0,0-0.1,0.1-0.2,0.1c0,0-0.1,0-0.1,0
			c0,0,0,0-0.1-0.1c0,0,0,0.1-0.1,0.1c0,0-0.1,0-0.1,0h0c0,0,0,0-0.1,0c0,0,0,0,0,0h0v-0.1c0,0,0,0,0,0c0,0,0,0,0.1,0h0
			c0,0,0.1,0,0.1,0c0,0,0,0,0-0.1V54.4z M804,54.4v0.1c0,0,0,0.1,0,0.1c0,0,0,0,0.1,0c0,0,0.1,0,0.1,0c0,0,0-0.1,0-0.1v-0.1H804z"/>
	</g>
	<path d="M820.1,39.2l9.7,9.7c0.3-0.3,0.6-0.6,0.9-0.8l1.3-0.8c0.6-0.3,1.1-1.2,1.1-1.9v-1.5c0-0.7,0.3-1.7,0.6-2.3l0.8-1.3
		c0.3-0.6,0.3-1.6,0-2.2l-0.8-1.3c-0.3-0.6-0.6-1.6-0.6-2.3v-1.5c0-0.7-0.5-1.5-1.1-1.9l-1.3-0.8c-0.3-0.2-0.6-0.4-0.9-0.8
		L820.1,39.2z"/>
	<g>
		<path d="M820.1,25.9c0.2,0,0.3,0,0.4,0.1l1.3,0.8c0.8,0.5,2.1,0.8,3,0.8h1.5c0.2,0,0.5,0.2,0.6,0.4l0.8,1.3c0,0,0.1,0.1,0.1,0.1
			l-7.8,7.8l-7.8-7.8c0,0,0.1-0.1,0.1-0.1l0.8-1.3c0.1-0.2,0.5-0.4,0.6-0.4h1.5c0.9,0,2.2-0.4,3-0.8l1.3-0.8
			C819.7,25.9,819.9,25.9,820.1,25.9 M820.1,24.5c-0.4,0-0.8,0.1-1.1,0.3l-1.3,0.8c-0.6,0.3-1.6,0.6-2.3,0.6h-1.5
			c-0.7,0-1.5,0.5-1.9,1.1l-0.8,1.3c-0.2,0.3-0.4,0.6-0.8,0.9l9.7,9.7l9.7-9.7c-0.3-0.3-0.6-0.6-0.8-0.9l-0.8-1.3
			c-0.3-0.6-1.2-1.1-1.9-1.1h-1.5c-0.7,0-1.7-0.3-2.3-0.6l-1.3-0.8C820.8,24.6,820.5,24.5,820.1,24.5L820.1,24.5z"/>
	</g>
	<g>
		<path d="M820.1,41.2l7.8,7.8c0,0-0.1,0.1-0.1,0.1l-0.8,1.3c-0.1,0.2-0.5,0.4-0.6,0.4h-1.5c-0.9,0-2.2,0.3-3,0.8l-1.3,0.8
			c0,0-0.2,0.1-0.4,0.1s-0.3,0-0.4-0.1l-1.3-0.8c-0.8-0.5-2.1-0.8-3-0.8h-1.5c-0.2,0-0.5-0.2-0.6-0.4l-0.8-1.3c0,0-0.1-0.1-0.1-0.1
			L820.1,41.2 M820.1,39.2l-9.7,9.7c0.3,0.3,0.6,0.6,0.8,0.9l0.8,1.3c0.3,0.6,1.2,1.1,1.9,1.1h1.5c0.7,0,1.7,0.3,2.3,0.6l1.3,0.8
			c0.3,0.2,0.7,0.3,1.1,0.3s0.8-0.1,1.1-0.3l1.3-0.8c0.6-0.3,1.6-0.6,2.3-0.6h1.5c0.7,0,1.5-0.5,1.9-1.1l0.8-1.3
			c0.2-0.3,0.4-0.6,0.8-0.9L820.1,39.2L820.1,39.2z"/>
	</g>
	<g>
		<path d="M821.4,33l-3.8,3.8l-1.4,1.4l-1,1l1,1l1.4,1.4l3.8,3.8h-13v-1.4c0-0.9-0.3-2.2-0.8-3l-0.8-1.3c-0.1-0.2-0.1-0.6,0-0.7
			l0.8-1.3c0.5-0.8,0.8-2.1,0.8-3V33H821.4 M824.8,31.6h-17.4c-0.3,0.4-0.5,0.9-0.5,1.3v1.5c0,0.7-0.3,1.7-0.6,2.3l-0.8,1.3
			c-0.3,0.6-0.3,1.6,0,2.2l0.8,1.3c0.3,0.6,0.6,1.6,0.6,2.3v1.5c0,0.4,0.2,0.9,0.5,1.3h17.4l-6.2-6.2l-1.4-1.4l1.4-1.4L824.8,31.6
			L824.8,31.6z"/>
	</g>
	<polygon points="813.1,31.8 824.2,31.8 818.7,37.4 	"/>
	<polygon points="813.1,46.5 824.2,46.5 818.7,41 	"/>
</g>
<rect x="757.9" y="80.4" class="st0" width="2.8" height="111.8"/>
<g>
	<g>
		<path class="st0" d="M165.9,40.5L165.9,40.5c-52.9,52.9-52.9,138.7,0,191.6"/>
		<g>
			<path class="st0" d="M171.2,45.8"/>
		</g>
	</g>
	<rect x="148.5" y="117.5" class="st0" width="34.9" height="28.3"/>
	<path class="st0" d="M165.9,232.1l5.1,5.1l-6,6l5.1,5.1l6-6l5.1,5.1l-6,6l5.1,5.1l6-6l5.1,5l0,8.5h43.2v-8.5h8.5v8.5h43.2l-0.1-8.5
		c-45-21.8-76-67.8-76-121.2c0-53.4,31-99.5,76.1-121.3V6.5h-43.2V15h-8.5V6.5h-43.2V15l-8.5,8.5l-6-6l-8.5,8.5l6,6l-8.5,8.5"/>
</g>
<g>
	<g>
		<path class="st0" d="M48.1,43.2c-52.9,52.9-52.9,138.7,0,191.6l0,0"/>
		<g>
			<path class="st0" d="M53.4,229.5"/>
		</g>
	</g>
	<path class="st0" d="M168.5,17.9"/>
	<path class="st0" d="M48.1,43.2l5.1-5.1l-6-6l5.1-5.1l6,6l5.1-5.1l-6-6l5.1-5.1l6,6l5.1-5l0-8.5h43.2v8.5h8.5V9.3h43.2l-0.1,8.5
		c-45,21.8-76,67.8-76,121.2c0,53.4,31,99.5,76.1,121.3v8.5h-43.2v-8.5h-8.5v8.5H73.5v-8.5l-8.5-8.5l-6,6l-8.5-8.5l6-6l-8.5-8.5"/>
</g>
</svg>
